<svg id="Ebene_1" data-name="Ebene 1" xmlns="http://www.w3.org/2000/svg" viewBox="0 0 2000 2000"><title>Symbol</title><path d="M1814.44,923.62c-304.93,36.86-12,406-12,406s-26.07,387.17-224.68,469.72c-134.07,55.73-252.77-265.56-317-594.1,0,0,365-478.38,180.55-862.62C1280.82,8.26,967.87,49.72,967.87,49.72,782.3,58.74,395.46,203.52,580,406.8,739.45,582.4,849.51,230.26,849.51,230.26s152.47-129.65,319-24.07c109.66,69.55,302.25,318.3,56.17,742.26,0,0-34.77-126.28-160.49-212.65-160-109.9-667.36-139.09-952.23,414.6C-206,1768.27,248.35,1934.11,522.51,1879.28c70.93-14.19,432-80,621.89-501.53,0,0,148.5,661.79,468.09,564.39,280.86-85.6,337-625.91,337-625.91S2119.37,886.76,1814.44,923.62ZM1044.1,1181.16s-409.24,553.68-625.9,365.11,92.28-585.79,377.14-666S1044.1,1181.16,1044.1,1181.16Z"/></svg>