<svg id="Ebene_1" data-name="Ebene 1" xmlns="http://www.w3.org/2000/svg" viewBox="0 0 2000 2000"><title>Symbol</title><path d="M1832.35,221.15c-93-146.83-396.43-352.38-695-107.67s-274.52,695-274.52,695c-174.52,21.82-398.43-136-398.43-136S250.3,264.2,137.73,528.49,442.4,793,442.4,793C623.48,915.33,868.19,940.39,868.19,940.39c48.94,582.41,67.37,869.94,269.18,1032.88,55.79,45,220.24,58.73,230-171.3s-244.71-234.92-244.71-234.92c-83.2-161.51-102.78-606.88-102.78-606.88C1989,950.38,1925.34,368,1832.35,221.15ZM1015,808.45s-72-369.64,222.69-508c283.24-133,423.34,58.42,423.34,168.58C1661.05,561.55,1662.44,808.45,1015,808.45Z"/></svg>