<svg id="Ebene_1" data-name="Ebene 1" xmlns="http://www.w3.org/2000/svg" viewBox="0 0 2000 2000"><title>Symbol</title><path d="M1571.74,1663.94s86.62-294.75-80.43-300.94-83.53,253.67-37.13,306.26c0,0-541.36,417.63-723.88,37.12,0,0-105.18-259.85,154.68-414.53,0,0,488.77,108.28,504.24-139.2s-439.28-49.5-535.18-9.29c0,0-219.64-163.95-99-411.43,0,0,822.88,176.33,631.08-334.1S721,566.83,721,566.83C625.12,553.31,625.12,370,625.12,370s140.31-24.8,148.49-179.43C785-23.92,564.28-83.73,498.29,149.31,393.69,518.69,653,673.15,653,673.15S516.85,945.38,758.14,1183.58c0,0-337.19,259.86-216.54,606.33s699.93,216.79,987.63-46.16c0,0,389,132.78,401.36-18.8S1714,1759.84,1571.74,1663.94Zm-368.13-499.63c24.75,108.28-256.76,44-256.76,44S1178.86,1056,1203.61,1164.31ZM1185.05,476C1305.7,677.1,813.83,623.65,813.83,623.65S1058.93,265.84,1185.05,476Zm332.06,1153s-107.19-136.8-16.28-138.35C1559.61,1489.7,1517.11,1629.05,1517.11,1629.05Z"/></svg>