<?xml version="1.0" encoding="utf-8"?>
<!-- Generator: Adobe Illustrator 22.0.1, SVG Export Plug-In . SVG Version: 6.00 Build 0)  -->
<svg version="1.1" id="Ebene_1" xmlns="http://www.w3.org/2000/svg" xmlns:xlink="http://www.w3.org/1999/xlink" x="0px" y="0px"
	 viewBox="0 0 2000 2000" style="enable-background:new 0 0 2000 2000;" xml:space="preserve">
<g>
	<path d="M1562,1.4c-311.6,8.2-77.9,565.9-77.9,565.9s-16.4,110.7-196.8,164c0,0-86.1-274.7-344.4-287s-561.1,212.8-623.3,725.8
		c0,0-139.4,811.9,291.1,828.3s758.6-635.6,734-1111.2c0,0,237.8-60.3,282.9-315.7C1627.6,571.4,1873.7-6.8,1562,1.4z M684.5,1716.6
		C338.4,1748.7,478.6,1048,478.6,1048s460.2,303,726.7-116C1205.3,932,1113.7,1676.7,684.5,1716.6z"/>
</g>
</svg>
