<?xml version="1.0" encoding="utf-8"?>
<!-- Generator: Adobe Illustrator 22.0.1, SVG Export Plug-In . SVG Version: 6.00 Build 0)  -->
<svg version="1.1" id="Ebene_1" xmlns="http://www.w3.org/2000/svg" xmlns:xlink="http://www.w3.org/1999/xlink" x="0px" y="0px"
	 viewBox="0 0 2000 2000" style="enable-background:new 0 0 2000 2000;" xml:space="preserve">
<g>
	<path d="M852.8,851.8c0,0,1133.6,109.7,894.2-448.6C1596.3,47.3,800,717.7,800,717.7s-256-124-312.8-345.4
		c0,0,166.6-430.7-85.3-365.7C65.7,93.4,510.5,628.3,510.5,628.3s106.6,134.1,208.1,158.5c0,0-432.7,409.8-386,853.2
		c0,0,47.7,527.2,579,300.7c550.1-234.6,492.2-714.8,305.2-681.6c-188.7,33.5-67.5,332.1-67.5,332.1s-128.4,175.9-288.5,237.7
		c-162.7,62.8-357.3,9.9-386-213.3C418,1172.7,852.8,851.8,852.8,851.8z M1596.3,543c26.8,217.8-584.7,182.8-584.7,182.8
		S1563.8,278.9,1596.3,543z"/>
</g>
</svg>
