<?xml version="1.0" encoding="utf-8"?>
<!-- Generator: Adobe Illustrator 22.0.1, SVG Export Plug-In . SVG Version: 6.00 Build 0)  -->
<svg version="1.1" id="Ebene_1" xmlns="http://www.w3.org/2000/svg" xmlns:xlink="http://www.w3.org/1999/xlink" x="0px" y="0px"
	 viewBox="0 0 2000 2000" style="enable-background:new 0 0 2000 2000;" xml:space="preserve">
<g>
	<path d="M1587.1,42.1c-73.9-114.9-237.4,31.4-266.8,131.3c0,0-213.4,95.5-291.4,318.6c0,0-389.9,17.9-488.4,399.6
		s238,426.8,357.1,324.2c0,0-49.7,268.7-238,443.2c0,0-361.2,188.8-229.8,316s270.9-275,270.9-275s209.3-118.4,291.4-500.7
		c0,0,172.4-156,168.3-311.9c0,0,160.1-88.9,93-281.8c0,0-32.8-95.8-154.6-113.7c0,0,114.9-211.9,266.8-252.9
		C1365.5,239.1,1661,157,1587.1,42.1z M940,1090.6c-162.5,83.1-291.4-17.9-279.1-178c12.3-160.1,183.3-316.5,318.8-324.7
		c0,0-172.4,279.1,90.3,303.7C1070,891.6,1063.2,1027.6,940,1090.6z"/>
</g>
</svg>
