<?xml version="1.0" encoding="utf-8"?>
<!-- Generator: Adobe Illustrator 22.0.1, SVG Export Plug-In . SVG Version: 6.00 Build 0)  -->
<svg version="1.1" id="Ebene_1" xmlns="http://www.w3.org/2000/svg" xmlns:xlink="http://www.w3.org/1999/xlink" x="0px" y="0px"
	 viewBox="0 0 2000 2000" style="enable-background:new 0 0 2000 2000;" xml:space="preserve">
<g>
	<path d="M1571.7,1663.9c0,0,86.6-294.7-80.4-300.9s-83.5,253.7-37.1,306.3c0,0-541.4,417.6-723.9,37.1c0,0-105.2-259.9,154.7-414.5
		c0,0,488.8,108.3,504.2-139.2c15.5-247.5-439.3-49.5-535.2-9.3c0,0-219.6-164-99-411.4c0,0,822.9,176.3,631.1-334.1
		S721,566.8,721,566.8C625.1,553.3,625.1,370,625.1,370s140.3-24.8,148.5-179.4C785-23.9,564.3-83.7,498.3,149.3
		C393.7,518.7,653,673.2,653,673.2s-136.1,272.2,105.2,510.4c0,0-337.2,259.9-216.5,606.3s699.9,216.8,987.6-46.2
		c0,0,389,132.8,401.4-18.8C1943,1573.4,1714,1759.8,1571.7,1663.9z M1203.6,1164.3c24.7,108.3-256.8,44-256.8,44
		S1178.9,1056,1203.6,1164.3z M1185,476c120.6,201.1-371.2,147.6-371.2,147.6S1058.9,265.8,1185,476z M1517.1,1629
		c0,0-107.2-136.8-16.3-138.3C1559.6,1489.7,1517.1,1629,1517.1,1629z"/>
</g>
</svg>
