<svg id="Ebene_1" data-name="Ebene 1" xmlns="http://www.w3.org/2000/svg" viewBox="0 0 2000 2000"><defs><style>.cls-1{fill:#1d1d1b;}</style></defs><title>Symbol</title><path class="cls-1" d="M533.71,1331.09s-58.9,453.61-292.15,474.14c-304.89,26.84-220.66-401.7,180.85-563.43,0,0,591.26-320,765.16-556.48,0,0,104.34-813.85,368.66-667.77s-264.32,695.6-264.32,695.6-180.61,1113.49,167.34,1113.1c341.64-.39,319.57-334,319.57-334s-245.19-382.57,6.09-493.87S1911,1527,1911,1527s-94.81,473-445.18,473c-313,0-365.56-577.66-264.33-1182.51C1201.48,817.49,839.77,1163,533.71,1331.09Z"/></svg>