<svg id="Ebene_1" data-name="Ebene 1" xmlns="http://www.w3.org/2000/svg" viewBox="0 0 2000 2000"><title>Symbol</title><path d="M1562,1.43c-311.64,8.2-77.91,565.86-77.91,565.86s-16.4,110.72-196.82,164c0,0-86.11-274.73-344.44-287S381.78,657.08,319.6,1170.06c0,0-139.42,811.89,291.13,828.29s758.59-635.57,734-1111.22c0,0,237.83-60.31,282.94-315.74C1627.65,571.39,1873.67-6.77,1562,1.43ZM684.54,1716.56C338.41,1748.71,478.6,1048,478.6,1048s460.17,303,726.7-116C1205.3,932,1113.72,1676.7,684.54,1716.56Z"/></svg>