<?xml version="1.0" encoding="utf-8"?>
<!-- Generator: Adobe Illustrator 22.0.1, SVG Export Plug-In . SVG Version: 6.00 Build 0)  -->
<svg version="1.1" id="Ebene_1" xmlns="http://www.w3.org/2000/svg" xmlns:xlink="http://www.w3.org/1999/xlink" x="0px" y="0px"
	 viewBox="0 0 2000 2000" style="enable-background:new 0 0 2000 2000;" xml:space="preserve">
<g>
	<path d="M1832.3,221.1c-93-146.8-396.4-352.4-695-107.7c-298.5,244.7-274.5,695-274.5,695c-174.5,21.8-398.4-136-398.4-136
		S250.3,264.2,137.7,528.5C25.2,792.8,442.4,793,442.4,793c181.1,122.4,425.8,147.4,425.8,147.4c48.9,582.4,67.4,869.9,269.2,1032.9
		c55.8,45,220.2,58.7,230-171.3c9.8-230-244.7-234.9-244.7-234.9c-83.2-161.5-102.8-606.9-102.8-606.9
		C1989,950.4,1925.3,368,1832.3,221.1z M1015,808.5c0,0-72-369.6,222.7-508c283.2-133,423.3,58.4,423.3,168.6
		C1661.1,561.5,1662.4,808.5,1015,808.5z"/>
</g>
</svg>
