<svg id="Ebene_1" data-name="Ebene 1" xmlns="http://www.w3.org/2000/svg" viewBox="0 0 2000 2000"><title>Symbol</title><path d="M1993.84,281.74c-29.58-122.55-240.89,93-494.45,76.07,0,0,84.52-342.31-262-342.31S988.59,602.35,1338.8,467.69c0,0,0,278.92-249.34,650.82L518.94,569.12S164.15,105.33,17.09,376.83C-106.52,605,480.9,674.77,480.9,674.77L997.5,1232.5s-406.72,752,75,752c513.47,0,80.3-773,80.3-773S1406.41,852.26,1474,476.14C1474,476.14,2023.42,404.3,1993.84,281.74Zm-917.06,1466.9c-260.15,0,0-394.7,0-394.7S1336.93,1748.64,1076.78,1748.64Z"/></svg>