<svg id="Ebene_1" data-name="Ebene 1" xmlns="http://www.w3.org/2000/svg" viewBox="0 0 2000 2000"><title>Symbol</title><path d="M1532.82,924s.37-153.23-153.24-153.23c-120.44,0-117,96-209,164.76-121.12,90.56-237.35,136.35-237.35,136.35L922.59,565.27s315.29-46,467.62-240.89S1381.35-60,1094.41,17.94,851.74,483.79,851.74,483.79c-124,3.54-164.35-138.16-164.35-138.16,62.36-173.58,54.53-333-69.46-340.08S490.4,182.67,557.71,352.72c81.32,205.44,294,212.55,294,212.55l-3.54,549.09C525.83,1293.23,281.39,2000,656.9,2000S958,1146.25,958,1146.25c102.73-14.17,265.69-164.45,265.69-164.45s-6.22,118.39,155.87,118.39S1532.82,924,1532.82,924Zm-835.18,846.5c-127.58-7-112.93-192.2-39-320.6s193.07-217.72,193.07-217.72S832.26,1777.91,697.64,1770.47Z"/></svg>