<?xml version="1.0" encoding="utf-8"?>
<!-- Generator: Adobe Illustrator 22.0.1, SVG Export Plug-In . SVG Version: 6.00 Build 0)  -->
<svg version="1.1" id="Ebene_1" xmlns="http://www.w3.org/2000/svg" xmlns:xlink="http://www.w3.org/1999/xlink" x="0px" y="0px"
	 viewBox="0 0 2000 2000" style="enable-background:new 0 0 2000 2000;" xml:space="preserve">
<g>
	<path d="M1993.8,281.7c-29.6-122.6-240.9,93-494.5,76.1c0,0,84.5-342.3-262-342.3s-248.8,586.9,101.4,452.2
		c0,0,0,278.9-249.3,650.8L518.9,569.1c0,0-354.8-463.8-501.8-192.3C-106.5,605,480.9,674.8,480.9,674.8l516.6,557.7
		c0,0-406.7,752,75.1,752c513.5,0,80.3-773,80.3-773s253.6-359.2,321.2-735.3C1474,476.1,2023.4,404.3,1993.8,281.7z M1076.8,1748.6
		c-260.1,0,0-394.7,0-394.7S1336.9,1748.6,1076.8,1748.6z"/>
</g>
</svg>
