<?xml version="1.0" encoding="utf-8"?>
<!-- Generator: Adobe Illustrator 22.0.1, SVG Export Plug-In . SVG Version: 6.00 Build 0)  -->
<svg version="1.1" id="Ebene_1" xmlns="http://www.w3.org/2000/svg" xmlns:xlink="http://www.w3.org/1999/xlink" x="0px" y="0px"
	 viewBox="0 0 2000 2000" style="enable-background:new 0 0 2000 2000;" xml:space="preserve">
<path d="M533.7,1331.1c0,0-58.9,453.6-292.2,474.1c-304.9,26.8-220.7-401.7,180.9-563.4c0,0,591.3-320,765.2-556.5
	c0,0,104.3-813.8,368.7-667.8s-264.3,695.6-264.3,695.6s-180.6,1113.5,167.3,1113.1c341.6-0.4,319.6-334,319.6-334
	s-245.2-382.6,6.1-493.9C2036.2,887,1911,1527,1911,1527s-94.8,473-445.2,473c-313,0-365.6-577.7-264.3-1182.5
	C1201.5,817.5,839.8,1163,533.7,1331.1z"/>
</svg>
