<?xml version="1.0" encoding="utf-8"?>
<!-- Generator: Adobe Illustrator 22.0.1, SVG Export Plug-In . SVG Version: 6.00 Build 0)  -->
<svg version="1.1" id="Ebene_1" xmlns="http://www.w3.org/2000/svg" xmlns:xlink="http://www.w3.org/1999/xlink" x="0px" y="0px"
	 viewBox="0 0 2000 2000" style="enable-background:new 0 0 2000 2000;" xml:space="preserve">
<g>
	<path d="M1532.8,924c0,0,0.4-153.2-153.2-153.2c-120.4,0-117,96-209,164.8c-121.1,90.6-237.3,136.4-237.3,136.4l-10.6-506.6
		c0,0,315.3-46.1,467.6-240.9c152.3-194.8-8.9-384.4-295.8-306.4C807.5,95.9,851.7,483.8,851.7,483.8
		c-124,3.5-164.4-138.2-164.4-138.2c62.4-173.6,54.5-333-69.5-340.1c-124-7.1-127.5,177.1-60.2,347.2
		c81.3,205.4,294,212.6,294,212.6l-3.5,549.1C525.8,1293.2,281.4,2000,656.9,2000c375.5,0,301.1-853.8,301.1-853.8
		c102.7-14.2,265.7-164.5,265.7-164.5s-6.2,118.4,155.9,118.4C1541.7,1100.2,1532.8,924,1532.8,924z M697.6,1770.5
		c-127.6-7-112.9-192.2-39-320.6s193.1-217.7,193.1-217.7S832.3,1777.9,697.6,1770.5z"/>
</g>
</svg>
