<svg id="Ebene_1" data-name="Ebene 1" xmlns="http://www.w3.org/2000/svg" viewBox="0 0 2000 2000"><title>Symbol</title><path d="M1587.14,42.06c-73.88-114.91-237.43,31.4-266.78,131.34,0,0-213.41,95.45-291.39,318.6,0,0-389.9,17.94-488.4,399.63s238,426.83,357.07,324.22c0,0-49.66,268.71-238,443.25,0,0-361.16,188.8-229.83,316s270.88-275,270.88-275S910,1581.7,992,1199.44c0,0,172.38-156,168.27-311.92,0,0,160.06-88.92,93-281.82,0,0-32.83-95.76-154.59-113.7,0,0,114.92-211.89,266.77-252.94C1365.51,239.06,1661,157,1587.14,42.06ZM940.05,1090.56c-162.54,83.08-291.4-17.92-279.09-178S844.28,596.13,979.72,587.92c0,0-172.38,279.08,90.29,303.71C1070,891.63,1063.17,1027.63,940.05,1090.56Z"/></svg>