<svg id="Ebene_1" data-name="Ebene 1" xmlns="http://www.w3.org/2000/svg" viewBox="0 0 2000 2000"><title>Symbol</title><path d="M852.77,851.77S1986.33,961.47,1747,403.19C1596.29,47.31,800,717.7,800,717.7s-256-124-312.84-345.35c0,0,166.58-430.67-85.32-365.67C65.66,93.43,510.55,628.31,510.55,628.31S617.12,762.39,718.7,786.77c0,0-432.71,409.85-386,853.21,0,0,47.74,527.17,579,300.66,550.12-234.56,492.19-714.76,305.22-681.56-188.73,33.52-67.54,332.15-67.54,332.15S1021,1767.08,860.9,1828.91c-162.67,62.82-357.31,9.89-386-213.3C418,1172.75,852.77,851.77,852.77,851.77ZM1596.29,543c26.8,217.76-584.72,182.83-584.72,182.83S1563.79,278.9,1596.29,543Z"/></svg>