<?xml version="1.0" encoding="utf-8"?>
<!-- Generator: Adobe Illustrator 22.0.1, SVG Export Plug-In . SVG Version: 6.00 Build 0)  -->
<svg version="1.1" id="Ebene_1" xmlns="http://www.w3.org/2000/svg" xmlns:xlink="http://www.w3.org/1999/xlink" x="0px" y="0px"
	 viewBox="0 0 2000 2000" style="enable-background:new 0 0 2000 2000;" xml:space="preserve">
<g>
	<path d="M1814.4,923.6c-304.9,36.9-12,406-12,406s-26.1,387.2-224.7,469.7c-134.1,55.7-252.8-265.6-317-594.1
		c0,0,365-478.4,180.5-862.6C1280.8,8.3,967.9,49.7,967.9,49.7c-185.6,9-572.4,153.8-387.8,357.1
		c159.4,175.6,269.5-176.5,269.5-176.5s152.5-129.7,319-24.1c109.7,69.5,302.3,318.3,56.2,742.3c0,0-34.8-126.3-160.5-212.6
		c-160-109.9-667.4-139.1-952.2,414.6c-317.9,617.9,136.4,783.7,410.6,728.9c70.9-14.2,432-79.9,621.9-501.5
		c0,0,148.5,661.8,468.1,564.4c280.9-85.6,337-625.9,337-625.9S2119.4,886.8,1814.4,923.6z M1044.1,1181.2
		c0,0-409.2,553.7-625.9,365.1s92.3-585.8,377.1-666S1044.1,1181.2,1044.1,1181.2z"/>
</g>
</svg>
